<svg enable-background="new 0 0 2000 2000" viewBox="0 0 2000 2000" xmlns="http://www.w3.org/2000/svg"><path d="m1964 734.9c146.5 532.3-166.5 1082.6-699 1229s-1082.7-166.4-1229-698.8 166.3-1082.7 698.8-1229.1 1082.7 166.4 1229.2 698.9z" fill="#8dc451"/><path d="m1314.3 659.4c-48-125.7-171.4-138.3-315.5-111.9l-49.2-179.1-109.1 30 47.9 174.4c-28.6 7.9-57.8 16.5-86.7 25.1l-48.3-175.5-109 30 49.3 179-219.8 60.8 32.1 116.4s80.1-23.7 79.2-21.8c44.2-12.1 65.6 9.5 75.9 30.5l135 490.7c1.9 14.4-.2 38.8-31.1 47.3 1.7.8-79.3 21.7-79.3 21.7l14.2 136.4 220-59.8 49.9 181.2 108.9-30-49.3-179.3c30.1-7.6 59.1-15.3 87.3-23.1l49 178.5 109-30-49.7-180.9c180.4-61 296-142.4 264.6-318.8-25.3-142.1-107.4-186.1-218.4-182.5 54.3-49.6 78.3-117.2 43-209.2m-45.9 429.4c37.2 135.4-198.8 183.8-272.7 204.2l-66-240c73.9-20.4 299.8-105.4 338.7 35.8m-143.8-324.7c33.9 123.2-163.4 162-225 179l-60-217.7c61.6-17 249.6-89.8 285 38.7" fill="#fff"/></svg>