<svg xmlns="http://www.w3.org/2000/svg" width="1971.63" height="1971.63" viewBox="0 0 1971.63 1971.63"><defs><clipPath id="0" transform="translate(-14.19-14.19)"><path fill="none" d="M 0,0 H2000 V2000 H0 z"/></clipPath><linearGradient id="1" x1="722.13" y1="122.61" x2="1031.23" y2="1836.35" gradientUnits="userSpaceOnUse"><stop stop-color="#27d3a2"/><stop offset="1" stop-color="#9388fd"/></linearGradient><linearGradient id="2" y1="529.65" x2="0" y2="1437.46" gradientUnits="userSpaceOnUse"><stop stop-color="#283947"/><stop offset="1" stop-color="#657786"/></linearGradient></defs><g clip-path="url(#0)"><circle cx="985.81" cy="985.81" r="985.74" fill="#f9fafb"/><path d="M1625.79,1761.62a985.74,985.74,0,1,1-.88-1524L1426.07,480.22a672.09,672.09,0,1,0,.6,1039.07Z" transform="translate(-14.19-14.19)" fill="url(#1)"/><path d="m1000 1812.5c448.73 0 812.5-363.77 812.5-812.5s-363.77-812.5-812.5-812.5-812.5 363.77-812.5 812.5 363.77 812.5 812.5 812.5" transform="translate(-14.19-14.19)" fill="#fff"/><path d="M1442.46,869.1h-91.73c-50.5-140.18-186.3-236.29-365.38-236.29H690.83V869.1H588.53v84.77h102.3v88.9H588.53v84.78h102.3V1361H985.35c177,0,311.78-95.34,363.58-233.45h93.53v-84.78h-72.92a385.15,385.15,0,0,0,2.84-45.86v-2.07c0-13.91-.78-27.57-2.07-41h72.41V869.1ZM773.28,708.31H985.35c131.42,0,229.07,64.68,274.17,160.53H773.28Zm212.07,576.42H773.28V1127.29H1259C1213.65,1221.6,1116.25,1284.73,985.35,1284.73Zm301.74-286a305.2,305.2,0,0,1-3.1,43.81H773.28v-88.9h511a335.83,335.83,0,0,1,2.84,43Z" transform="translate(-14.19-14.19)" fill="url(#2)"/></g></svg>