<svg width="256" height="256" viewBox="0 0 256 256" fill="none" xmlns="http://www.w3.org/2000/svg">
<g clip-path="url(#clip0)">
<circle cx="128.137" cy="128.154" r="127.863" fill="#EDF0F2"/>
<path d="M209.31 226.946C189.771 243 165.91 252.9 140.744 255.393C106.998 258.737 73.306 248.538 47.0798 227.04C20.8535 205.542 4.24143 174.507 0.897933 140.761C-1.59543 115.595 3.42967 90.2551 15.3378 67.9454C27.2459 45.6357 45.5021 27.3582 67.798 15.4242C90.0938 3.49019 115.428 -1.56435 140.596 0.899756C165.765 3.36386 189.637 13.236 209.195 29.2676L183.404 60.7314C170.069 49.8007 153.792 43.0698 136.632 41.3897C119.472 39.7096 102.199 43.1559 86.9969 51.2927C71.7952 59.4296 59.3478 71.8915 51.2286 87.1026C43.1094 102.314 39.6832 119.591 41.3832 136.749C43.6629 159.758 54.9893 180.919 72.8709 195.576C90.7524 210.234 113.724 217.188 136.733 214.908C153.891 213.208 170.16 206.458 183.482 195.512L209.31 226.946Z" fill="url(#paint0_linear)"/>
<path d="M128.485 240.97C190.609 240.97 240.97 190.609 240.97 128.485C240.97 66.3612 190.609 16 128.485 16C66.3612 16 16 66.3612 16 128.485C16 190.609 66.3612 240.97 128.485 240.97Z" fill="white"/>
<path d="M129.23 147.946L162.284 128.753L123 108.5L129.23 147.946Z" fill="#AAB8C1"/>
<path d="M96.172 128.753L129.23 147.946V112.5L96.172 128.753Z" fill="#AAB8C1"/>
<path d="M129.233 74.8786L96.1747 128.756L139.5 109.5L129.233 74.8786Z" fill="#283947"/>
<path d="M129.23 74.8775V113.985L162.284 128.755L129.23 74.8775Z" fill="#657786"/>
<path d="M129.23 180.672L133.5 156.5L96.172 134.911L129.23 180.672Z" fill="#283947"/>
<path d="M129.23 154.099V180.672L162.306 134.911L129.23 154.099Z" fill="#657786"/>
</g>
<defs>
<linearGradient id="paint0_linear" x1="96.1718" y1="13.61" x2="136.266" y2="235.903" gradientUnits="userSpaceOnUse">
<stop stop-color="#27D3A2"/>
<stop offset="1" stop-color="#9388FD"/>
</linearGradient>
<clipPath id="clip0">
<rect width="256" height="256" fill="white"/>
</clipPath>
</defs>
</svg>
