<svg id="Layer_1" xmlns="http://www.w3.org/2000/svg" viewBox="0 0 78.9 91.1" width="2165" height="2500"><style>.st0{fill:url(#SVGID_1_)}.st1{fill:url(#SVGID_2_)}.st2{fill:#fff}</style><linearGradient id="SVGID_1_" gradientUnits="userSpaceOnUse" x1="39.465" x2="39.465" y2="91.144"><stop offset="0" stop-color="#25376c"/><stop offset="1" stop-color="#1f1f49"/></linearGradient><path class="st0" d="M39.5 0L0 22.8v45.6l39.5 22.8L79 68.4V22.8L39.5 0z"/><linearGradient id="SVGID_2_" gradientUnits="userSpaceOnUse" x1="19.735" y1="91.144" x2="19.735"><stop offset="0" stop-color="#25376c"/><stop offset="1" stop-color="#1f1f49"/></linearGradient><path class="st1" d="M39.5 0L0 22.8v45.6l39.5 22.8V0z"/><path class="st2" d="M54.9 19.7h-31l-3.6 15.8h38.4zM29.4 57.2V46.7l-9.2-5.8-10.4 7.7L24 73.3h5.7l6.7-6.3v-3.1z"/><path class="st2" d="M49.5 37.9h-20l3.3 8.8-1 9.9h15.4l-1-9.9z"/><path class="st2" d="M58.7 40.8l-9.1 5.9v10.5l-6.9 6.7V67l6.7 6.2H55l14.1-24.6z"/></svg>