<svg xmlns="http://www.w3.org/2000/svg" width="2000" height="1739.31" viewBox="0 0 2000 1739.31"><title>SVG export Illustrator</title><path d="M565.38.11q717.21-.22,1434.51,0,.22,231.83,0,463.58-717.23.22-1434.51,0Q565.16,231.86,565.38.11Z" style="fill:#02a6c2"/><path d="M.57,638.1q231.39-1.2,462.86,0,1.2,231.39,0,462.86Q232,1102.15.57,1101-.63,869.56.57,638.1Z" style="fill:#5fcade"/><path d="M565.74,638.1q517.67-1.1,1035.27,0,1.1,231.39,0,462.86-517.66,1.08-1035.27,0Q564.66,869.56,565.74,638.1Z" style="fill:#5fcade"/><path d="M566.17,1276.23q231-2.51,461.92,0,2.4,230.85.07,461.92-231,2.28-461.91-.08Q563.85,1507.24,566.17,1276.23Z" style="fill:#abebf4"/></svg>