<svg enable-background="new 0 0 1097.4 955.6" viewBox="0 0 1097.4 955.6" xmlns="http://www.w3.org/2000/svg" xmlns:xlink="http://www.w3.org/1999/xlink"><linearGradient id="a" gradientUnits="userSpaceOnUse" x1="281.1564" x2="825.3072" y1="949.0399" y2="6.5431"><stop offset=".002028925" stop-color="#ffdc00"/><stop offset=".3333" stop-color="#e58e2f"/><stop offset=".6666" stop-color="#db2d72"/><stop offset="1" stop-color="#f0f"/></linearGradient><path d="m264.8 933.8-73.7-127.6c-2.3-4.1-2.3-10.9.1-15l81.8-141.6c2.4-4.1 8.3-7.5 13.1-7.5h163.6c4.7 0 10.7 3.5 13.1 7.5l81.8 141.7c2.4 4.1 2.4 11 0 15.1l-81.8 141.7c-2.3 4-8.1 7.4-12.8 7.5h-147.2c-13.9-.2-30.7-9.8-38-21.8zm531.4-291.5-163-282.3c-3.2-5.6-11.4-10.3-17.9-10.3h-326c-6.5 0-14.7 4.7-17.9 10.3l-163 282.3c-3.2 5.6-3.2 15.1 0 20.7l47.8 82.8 83.5-144.6c3.8-6.6 13.1-11.9 20.7-11.9h214.8c7.6 0 16.9 5.4 20.7 11.9l107.4 186c3.8 6.6 3.8 17.3 0 23.9l-83.4 144.5h95.5c6.5 0 14.7-4.7 17.9-10.3l163-282.3c3.1-5.7 3.1-15.1-.1-20.7zm295.9-186.8-250.2-433.2c-7-12.3-24.4-22.3-38.5-22.3h-500.3c-14.1 0-31.5 10-38.6 22.3l-250.1 433.2c-7.1 12.3-7.1 32.3 0 44.5l57.3 99.3 166.2-287.9c4.7-8.1 16.1-14.7 25.5-14.7h377.5c9.4 0 20.8 6.6 25.5 14.7l188.8 326.9c4.7 8.1 4.7 21.3 0 29.4l-166.2 287.9h114.4c14.1 0 31.5-10 38.6-22.3l250.1-433.2c7.1-12.3 7.1-32.3 0-44.6z" fill="url(#a)"/></svg>