<svg id="Layer_1" xmlns="http://www.w3.org/2000/svg" viewBox="0 0 82.7 82.7" width="2500" height="2500"><style>.st0{fill:#fff}.st1{fill:#345d9d}</style><title>Coin Blue with White L</title><path class="st0" d="M60.7 57.2h-23L42 42.7l6.6-1.9L50 36l-6.6 2 7-23.8v-.3c0-.7-.5-1.2-1.2-1.2h-8.9c-.7 0-1.3.5-1.5 1.2L30.6 42 24 44l-1.5 4.7 6.6-2-5.9 20.1h35.1c.7 0 1.3-.5 1.5-1.1l2-6.9v-.3c.1-.8-.4-1.3-1.1-1.3z"/><path class="st1" d="M41.3 0C18.5 0 0 18.5 0 41.3c0 22.8 18.5 41.3 41.3 41.3 22.8 0 41.3-18.5 41.3-41.3C82.7 18.5 64.2 0 41.3 0zm20.5 58.7l-2 6.9c-.2.7-.8 1.1-1.5 1.1H23.2l5.9-20.1-6.6 2L24 44l6.6-2 8.3-28.2c.2-.7.8-1.1 1.5-1.2h8.9c.7 0 1.2.5 1.2 1.2v.3l-7 23.8 6.6-2-1.4 4.8-6.7 2-4.3 14.5h23c.7 0 1.2.5 1.2 1.2 0 .1 0 .2-.1.3z"/></svg>