<svg xmlns="http://www.w3.org/2000/svg" width="1879" height="2500" viewBox="0 0 30.08 40.01"><title>polkadot</title><path d="M15.18 0A15.24 15.24 0 0 0 0 15.18a15.61 15.61 0 0 0 .8 4.93 2.17 2.17 0 0 0 2.67 1.33 2.16 2.16 0 0 0 1.29-2.66 10 10 0 0 1-.59-3.87 10.95 10.95 0 1 1 11.61 11.26s-2.13.13-3.19.26a11.33 11.33 0 0 0-1.16.23.14.14 0 0 1-.2 0 .14.14 0 0 1 0-.17l.33-1.8 2-9a2.08 2.08 0 0 0-4.07-.87S4.73 36.85 4.73 37.05a2 2 0 0 0 1.48 2.44h.11A2 2 0 0 0 8.77 38a.44.44 0 0 1 0-.1c.06-.26.66-3.19.66-3.19a5.4 5.4 0 0 1 4.47-4.25c.46-.07 2.39-.2 2.39-.2A15.17 15.17 0 0 0 15.18 0z" fill="#1e1e1e"/><path d="M16.1 35a2.53 2.53 0 0 0-3 2 2.52 2.52 0 0 0 1.93 3h.07a2.48 2.48 0 0 0 3-1.86V38a2.62 2.62 0 0 0-2-3z" fill="#e6007a"/></svg>