<svg xmlns="http://www.w3.org/2000/svg" width="2000" height="1750" viewBox="0 0 2000 1750"><path fill="#53ae94" d="M1632.3 0 367.7 0 0 785.98 1000 1750 2000 785.98 1632.3 0z"/><path d="M1138.88,626.12V473.58H1487.7V241.17H537.87V473.58H886.72V626C603.2,639,390,695.17,390,762.43S603.3,885.85,886.72,899v488.59H1139V898.91c283-13.06,495.75-69.17,495.75-136.38S1422,639.22,1139,626.16m0,231.37v-.13c-7.11.45-43.68,2.65-125.09,2.65-65.09,0-110.89-1.85-127-2.69v.21C636.36,846.47,449.4,802.85,449.4,750.66s187-95.75,437.44-106.86V814.11c16.41,1.13,63.33,3.9,128.09,3.9,77.79,0,116.9-3.24,124.07-3.9V643.8c250,11.13,436.53,54.79,436.53,106.8S1388.91,846.29,1139,857.42" fill="#fff"/></svg>