<svg xmlns="http://www.w3.org/2000/svg" viewBox="0 0 2000 2000" enable-background="new 0 0 2000 2000"><path d="M1000,2000c552.3,0,1000-447.7,1000-1000S1552.3,0,1000,0S0,447.7,0,1000S447.7,2000,1000,2000" fill="#2c7df7"/><path d="m1145.3 1705.5c-102.6 0-177.4-24.6-224.3-73.7-46.9-49.1-70.4-102.1-70.4-158.8 0-20.7 4.1-38.2 12.3-52.4 8-14 19.6-25.6 33.5-33.5 14.2-8.2 31.7-12.3 52.4-12.3 20.7 0 38.2 4.1 52.4 12.3 14 8 25.6 19.6 33.5 33.5 8.2 14.2 12.3 31.7 12.3 52.4 0 25.1-6 45.6-18 61.4-12 15.8-26.2 26.2-42.6 31.1 14.2 19.7 36.6 33.6 67.1 41.8 29.8 8.6 60.7 13.1 91.7 13.1 42.6 0 81.1-11.5 115.4-34.4 34.4-22.9 59.8-56.8 76.1-101.5 16.4-44.7 24.6-95.5 24.6-152.3 0-61.7-9-114.3-27-158-17.5-44.2-43.4-77-77.8-98.3-34.4-21.3-71.5-31.9-111.3-31.9-26.2 0-58.9 10.9-98.3 32.8l-72 36v-36l324.2-432.3h-448.5v448.7c0 37.1 8.2 67.7 24.6 91.7 16.4 24 41.5 36 75.3 36 26.2 0 51.3-8.7 75.3-26.2 24.2-17.6 45.2-39.2 62.2-63.9 2.2-4.9 4.9-8.5 8.2-10.7 2.9-2.6 6.7-4 10.7-4.1 6 0 13.1 3 21.3 9 7.5 8.3 11.6 19.1 11.5 30.3-.9 7.7-2.3 15.4-4.1 22.9-18.6 41.5-44.2 73.1-77 95-31.9 21.6-69.6 33-108.1 32.7-97.2 0-164.3-19.1-201.4-57.3-37.1-38.2-55.7-90.1-55.7-155.5v-448.7h-229.3v-83.5h229.2v-189.9l-52.3-52.4v-42.6h152.3l57.3 29.5v255.4l592.8-1.7 59 59-363.5 363.5c22-8.8 45.2-14.3 68.8-16.4 39.3 0 83.5 12.5 132.6 37.6 49.7 24.6 87.9 58.4 114.6 101.5 26.8 42.6 43.9 83.5 51.6 122.8 8.2 39.3 12.3 74.2 12.3 104.8 0 69.9-14.7 134.8-44.2 194.9-29.5 60-74.2 104.8-134.3 134.3-60.2 29.6-125.1 44.3-195 44.3" fill="#fff"/></svg>