<svg xmlns="http://www.w3.org/2000/svg" width="24.86" height="28.9" viewBox="0 0 24.86 28.9"><path d="M14.31,13.74c.6,1.07-.75,1.4-1.39,1.46-1,.1-1.16-.46-1-1.16a1.22,1.22,0,0,1,.39-.65,1.17,1.17,0,0,1,.69-.3,1.23,1.23,0,0,1,.73.14,1.29,1.29,0,0,1,.55.51Z" transform="translate(-2.55)" fill="#ff007a"/><path d="M18.09,11.75c-.7,5.42,8.8,4.29,8.62,8.6a4.52,4.52,0,0,0-1.42-6.26C22.83,12.56,19.63,13.4,18.09,11.75Z" transform="translate(-2.55)" fill="#ff007a"/><path d="M23.57,9.71l-.19-.17Z" transform="translate(-2.55)" fill="#ff007a"/><path d="M25.78,13.66h0a3.21,3.21,0,0,0-.29-.46,2.3,2.3,0,0,0-1.3-.88,5.57,5.57,0,0,0-1.06-.17c-.37,0-.74,0-1.11-.06a9.9,9.9,0,0,1-2.27-.34c-.19-.05-.37-.11-.56-.18l-.27-.11-.28-.13a4.84,4.84,0,0,1-1-.71,13.54,13.54,0,0,1-1.49-1.75Q15.52,8,14.79,7.15a6.13,6.13,0,0,0-1.68-1.32A5.77,5.77,0,0,0,11,5.22a4.9,4.9,0,0,1,2.24.28A6,6,0,0,1,15.2,6.74a13.4,13.4,0,0,1,1,1.1A8.39,8.39,0,0,1,22,8.6l0,0a8,8,0,0,1,1.32.92l.19.17a9.79,9.79,0,0,1,.88.94l0,0A5.59,5.59,0,0,1,25.78,13.66Z" transform="translate(-2.55)" fill="#ff007a"/><path d="M25.78,13.66h0Z" transform="translate(-2.55)" fill="#ff007a"/><path d="M11.13,5.92a2.62,2.62,0,0,1,1.62.8,3.38,3.38,0,0,1,.66,1.63,7.33,7.33,0,0,0,.35,1.32,5.33,5.33,0,0,0,.31.58,4.8,4.8,0,0,1,.3.48.22.22,0,0,1,0,.08.09.09,0,0,1,0,.07c-.21.24-.78,0-1-.13a3.24,3.24,0,0,1-1-.75,5.44,5.44,0,0,1-1.29-3.62A3.59,3.59,0,0,1,11.13,5.92Z" transform="translate(-2.55)" fill="#ff007a"/><path d="M21.29,16.81C20,20.49,25.93,23,23.7,26.69a4.74,4.74,0,0,0,2.42-6.09C25.29,18.6,22.84,17.88,21.29,16.81Z" transform="translate(-2.55)" fill="#ff007a"/><path d="M13.41,21.62A5.22,5.22,0,0,1,14.58,21a6.44,6.44,0,0,1,1.3-.37,13.58,13.58,0,0,0,2.48-.51,3.15,3.15,0,0,0,1-.61,2.38,2.38,0,0,0,.62-.94,3,3,0,0,0,.16-1.19,4.14,4.14,0,0,0-.29-1.25,2.77,2.77,0,0,1,.69,1.21,2.89,2.89,0,0,1,0,1.4,2.84,2.84,0,0,1-.72,1.3,3.37,3.37,0,0,1-1.23.77,5.06,5.06,0,0,1-1.37.28c-.45,0-.89.05-1.32.08a8.18,8.18,0,0,0-2.53.5Z" transform="translate(-2.55)" fill="#ff007a"/><path d="M21.81,28.09c-.13.1-.26.21-.41.31a4.17,4.17,0,0,1-.46.26,2.42,2.42,0,0,1-1.06.24,2.54,2.54,0,0,1-2.12-1.61c-.28-.57-.47-1.19-.81-1.74a2.4,2.4,0,0,0-2.24-1.3,1.34,1.34,0,0,0-1,.57A1.31,1.31,0,0,0,15,26.77a.77.77,0,0,0,.26-.07.68.68,0,0,0,.23-.14,1,1,0,0,0,.32-.46,1.18,1.18,0,0,0,.05-.59.87.87,0,0,0-.34-.5.92.92,0,0,1,.44.47,1.28,1.28,0,0,1,.06.67,1.35,1.35,0,0,1-.3.64,1.61,1.61,0,0,1-.28.24,2.49,2.49,0,0,1-.33.16,1.69,1.69,0,0,1-.74.07,1.94,1.94,0,0,1-.94-.41,10.19,10.19,0,0,1-.86-.88,4,4,0,0,0-1.16-.85,4.47,4.47,0,0,0-.94-.3L10,24.75a1.74,1.74,0,0,0-.49-.05,10.62,10.62,0,0,1,1.65-1.24,7.87,7.87,0,0,1,1.93-.83,5.47,5.47,0,0,1,2.17-.17,4.12,4.12,0,0,1,1.08.29A2.94,2.94,0,0,1,18,24.33a4.92,4.92,0,0,1,.33,1.07c.22,1.09.14,2.79,1.57,3a.83.83,0,0,0,.22,0h.24a3.54,3.54,0,0,0,.47-.07,5.89,5.89,0,0,0,.95-.32Z" transform="translate(-2.55)" fill="#ff007a"/><path d="M13.51,26.89l0,0Z" transform="translate(-2.55)" fill="#ff007a"/><path d="M12.23,11.43A1.68,1.68,0,0,1,12,12a2.19,2.19,0,0,1-.89.68,3.15,3.15,0,0,1-1,.26l-.23,0a1,1,0,0,0-.59.23,1,1,0,0,0-.35.53c0,.1,0,.21-.06.31,0,.28,0,.57-.07.92a5.29,5.29,0,0,1-.5,1.7,3.79,3.79,0,0,0-.63,2.13A2,2,0,0,0,8.35,20c.66.68,2.13,1,1.8,2.64-.2,1-1.84,2-4.14,2.4.23,0-.29-.92-.32-1A9.35,9.35,0,0,1,5,22.92a4.45,4.45,0,0,1-.41-2.66A5.64,5.64,0,0,1,6,17.88a7,7,0,0,0,1.56-3.09c0-.27.07-.61.13-.94A3.43,3.43,0,0,1,8,12.78a2.15,2.15,0,0,1,.45-.58.57.57,0,0,0,.18-.34.53.53,0,0,0-.07-.37L4.94,4.86l5.26,6.53a.58.58,0,0,0,.23.18.64.64,0,0,0,.27.07.67.67,0,0,0,.28-.06.66.66,0,0,0,.23-.17.43.43,0,0,0,.11-.28.47.47,0,0,0-.09-.28L10.17,9.51,8.84,7.86,6.18,4.57,2.55,0l4,4.28L9.35,7.42,10.77,9c.46.53.93,1,1.4,1.6l.08.1,0,.14A1.67,1.67,0,0,1,12.23,11.43Z" transform="translate(-2.55)" fill="#ff007a"/><path d="M13.45,26.85a3.7,3.7,0,0,1-.68-.69,7.36,7.36,0,0,0,.68.69Z" transform="translate(-2.55)" fill="#ff007a"/></svg>