<svg id="illustration" xmlns="http://www.w3.org/2000/svg" viewBox="0 0 413.6 413.6" width="2500" height="2500"><style>.st0{fill:#2775ca}.st1{fill:#fff}</style><circle class="st0" cx="206.8" cy="206.8" r="206.8"/><path class="st1" d="M168 350.6c0 4.9-3.8 7.7-8.5 6.2C97 336.8 51.7 278.2 51.7 209c0-69.2 45.3-127.8 107.9-147.8 4.7-1.5 8.5 1.3 8.5 6.2v12c0 3.3-2.5 7-5.6 8.1-49.5 18.2-85 65.8-85 121.5s35.4 103.3 84.9 121.4c3.1 1.1 5.6 4.9 5.6 8.2v12z"/><path class="st1" d="M219.8 305.9c0 3.6-2.9 6.5-6.5 6.5h-12.9c-3.6 0-6.5-2.9-6.5-6.5v-20.4c-28.2-3.8-42-19.6-45.8-41.1-.6-3.7 2.3-7 6-7h14.7c3.1 0 5.7 2.2 6.3 5.2 2.7 12.8 10.2 22.7 32.7 22.7 16.7 0 28.5-9.3 28.5-23.2 0-14-7-19.2-31.5-23.2-36.1-4.9-53.2-15.9-53.2-44.2 0-21.9 16.6-38.9 42.2-42.6v-20c0-3.6 2.9-6.5 6.5-6.5h12.9c3.6 0 6.5 2.9 6.5 6.5v20.6c20.8 3.7 34.1 15.5 38.4 35.2.8 3.7-2.1 7.2-5.9 7.2h-13.6c-2.9 0-5.4-2-6.2-4.8-3.7-12.5-12.6-17.9-28.1-17.9-17.1 0-26 8.2-26 19.9 0 12.3 5.1 18.4 31.3 22.2 35.5 4.9 53.9 15 53.9 45.2 0 23-17 41.6-43.8 45.8l.1 20.4z"/><path class="st1" d="M254.1 356.8c-4.7 1.5-8.5-1.3-8.5-6.2v-12.1c0-3.6 2.2-6.9 5.6-8.2 49.5-18.1 84.9-65.7 84.9-121.4s-35.4-103.3-84.9-121.4c-3.1-1.1-5.6-4.9-5.6-8.1v-12c0-4.9 3.8-7.7 8.5-6.2C316.7 81.2 362 139.8 362 209c-.1 69.2-45.4 127.8-107.9 147.8z"/></svg>