<svg enable-background="new 0 0 2000 2000" viewBox="0 0 2000 2000" xmlns="http://www.w3.org/2000/svg" xmlns:xlink="http://www.w3.org/1999/xlink"><linearGradient id="a" gradientTransform="matrix(1 0 0 -1 0 2042)" gradientUnits="userSpaceOnUse" x1=".000344" x2="1999.9911" y1="985.9975" y2="985.9975"><stop offset="0" stop-color="#9d4abe"/><stop offset=".03" stop-color="#9055c4"/><stop offset=".15" stop-color="#6b74d6"/><stop offset=".26" stop-color="#4c8fe5"/><stop offset=".39" stop-color="#34a3f0"/><stop offset=".52" stop-color="#22b2f9"/><stop offset=".66" stop-color="#18bafd"/><stop offset=".83" stop-color="#15bdff"/><stop offset="1" stop-color="#28bad5"/></linearGradient><path d="m859.8 1915-855.4-1742.3c-13.9-27.8 7-60.7 37.8-60.7h296.4c15.9 0 30.8 9 37.8 22.9l624.7 1264c55.7 113.4 216.8 113.4 272.5 0l622.7-1263c7-13.9 21.9-22.9 37.8-22.9h36.8c21.9 0 35.8 22.9 25.9 41.8l-864.4 1760.2c-55.7 113.3-216.9 113.3-272.6 0z" fill="url(#a)"/><g fill="#fff" transform="translate(0 -70)"><path d="m859.8 1985-483.4-1779.1c-7-14.9-22.9-22.9-35.8-22.9h-297.4c-32.8 0-51.7 32.8-38.8 60.7z" opacity=".1"/><path d="m1001.1 1469.8-996.7-1227.1c-11.9-28.8 6-57.7 33.8-60.7h301.4c16.9 1 29.8 11.9 35.8 22.9z" opacity=".1"/></g></svg>