<svg xmlns="http://www.w3.org/2000/svg" width="2000" height="2004.62" viewBox="0 0 2000 2004.62"><defs><mask id="0" x="0" y="0" width="2000" height="2004.62" maskUnits="userSpaceOnUse"><path fill="#fff" fill-rule="evenodd" d="m0 0l2000 0 0 2004.62-2000 0 0-2004.62"/></mask></defs><g fill-rule="evenodd"><path d="m1630.79 420.7l-54.91 55c271.59 297.7 271.59 754 0 1051.66l54.91 55c302.27-328.47 302.27-834.55 0-1163"/><path d="m475.75 425.48c297-272.24 752.22-272.24 1049.24 0l54.91-55.05c-327.73-303-832.62-303-1160.35 0"/><path d="m424.5 1528c-271.26-297.63-271.26-753.49 0-1051.12l-54.92-55c-302.27 328.49-302.27 834.54 0 1163"/><path d="m1524.44 1578.77c-297 272.24-752.23 272.24-1049.24 0l-54.92 55c327.74 303 832.62 303 1160.36 0"/><path d="M1166.39,862.14c0,110.08-171.7,96.69-226.25,96.69V764.9c54.55,0,226.25-17.25,226.25,97.24m44.85,301.07c0,120.36-205.75,106.6-271.28,106.6V1056.25c65.53.18,271.28-18.71,271.28,107M1346.7,818.65c-11-114.85-109.83-153.38-234.85-165.12V495.19h-96.66V650.41c-25.44,0-51.43,0-77.24.92V495.19h-96.1V654.45H646V758.11s71.39-1.29,70.29,0a50,50,0,0,1,54.92,42.56v436.12a34.26,34.26,0,0,1-36.28,32.12,1.83,1.83,0,0,1-.33,0c1.28,1.1-70.29,0-70.29,0l-19.22,115.78H840.2v161.82h96.65V1387.05h77.25v158.7h96.83v-160c163.28-9.91,277.14-50.28,291.41-203.47C1413.88,1059,1356,1004,1263.59,981.76c56.2-28.62,91.53-79.08,83.11-163.11"/></g><g mask="url(#0)"><path d="M999.82,78.16C490.9,78.47,78.58,492.22,78.89,1002.31s413.11,923.36,922,923.05c508.56-.3,920.72-413.51,920.92-923.23-.61-510-413.18-923.22-922-923.42Zm0,1926.46C447.54,2004.53-.11,1555.7,0,1002.13S447.9-.11,1000.18,0,1999.91,448.7,2000,1002.13C1999.4,1555.53,1552,2004,999.82,2004.62Z" fill-rule="evenodd"/></g></svg>